<svg xmlns="http://www.w3.org/2000/svg" width="18" height="18" viewBox="0 0 48 48">
  <g>
    <path fill="#4285F4" d="M24 9.5c3.54 0 6.7 1.22 9.19 3.23l6.85-6.85C35.64 2.13 30.18 0 24 0 14.82 0 6.71 5.48 2.69 13.44l7.98 6.2C12.13 13.13 17.62 9.5 24 9.5z"/>
    <path fill="#34A853" d="M46.1 24.55c0-1.64-.15-3.22-.43-4.74H24v9.01h12.42c-.54 2.9-2.18 5.36-4.65 7.01l7.19 5.59C43.93 37.13 46.1 31.36 46.1 24.55z"/>
    <path fill="#FBBC05" d="M10.67 28.65c-1.01-2.9-1.01-6.01 0-8.91l-7.98-6.2C.9 17.82 0 20.81 0 24c0 3.19.9 6.18 2.69 8.46l7.98-6.2z"/>
    <path fill="#EA4335" d="M24 48c6.18 0 11.36-2.05 15.15-5.59l-7.19-5.59c-2.01 1.35-4.59 2.15-7.96 2.15-6.38 0-11.87-3.63-14.33-8.94l-7.98 6.2C6.71 42.52 14.82 48 24 48z"/>
    <path fill="none" d="M0 0h48v48H0z"/>
  </g>
</svg> 